<svg id="Capa_1" data-name="Capa 1" xmlns="http://www.w3.org/2000/svg" viewBox="0 0 100 100"><defs><style>.cls-1{fill:#fff;}</style></defs><title>logo</title><path class="cls-1" d="M83.3,69.84v9.28a7.35,7.35,0,0,1-.66,3.61,2.66,2.66,0,0,1-2.27,1.09h-14V18.09q0-4.27,4.27-4.72l4.86-.44V1H62A33.38,33.38,0,0,0,48.49,4.46,34.33,34.33,0,0,0,31.22,23.81C26,39.18,10.95,82.49,10.95,82.49q-1.33,3.83-4.42,4.13l-4.86.44V99h9.49c8.7,0,13.06-5.72,14.89-10.3,1.22-3.07,2.65-7.9,2.65-7.9l2.59-7.74h17.2V99H89.13a9.3,9.3,0,0,0,9.21-9.48V69.84ZM48.49,59.51H34.82l3.52-10.8s1.44-5,4-12c2.83-7.78,6.15-11.13,6.15-11.13Z"/></svg>